<?xml version="1.0" encoding="UTF-8"?>
<svg id="Layer_2" data-name="Layer 2" xmlns="http://www.w3.org/2000/svg" viewBox="0 0 285.54 134.7">
  <defs>
    <style>
      .cls-1 {
        fill: #1689ca;
      }
    </style>
  </defs>
  <g id="Layer_1-2" data-name="Layer 1">
    <g>
      <path class="cls-1" d="M118.79,118.57c0,.74-.59,1.43-1.59,1.84l-31.9,13.9c-2.43,1.01-5.72-.05-5.72-1.84V60.12c-.07-10.69-8.75-19.33-19.46-19.33s-19.38,8.64-19.45,19.33v58.45c0,.74-.6,1.43-1.6,1.84l-33.36,13.9C3.29,135.32,0,134.26,0,132.47V61C0,27.53,27.38-.39,60.85,0c13.45.16,25.85,4.74,35.79,12.35,1.52,1.17,3.62,1.17,5.14,0C111.72,4.75,124.09.17,137.53,0c33.49-.42,60.89,27.51,60.89,61.01v57.56c0,.74-.6,1.43-1.6,1.84l-33.36,13.9c-2.42,1.01-5.71-.05-5.71-1.84V60.12c0-10.74-8.71-19.45-19.46-19.45s-19.46,8.71-19.46,19.45"/>
      <path class="cls-1" d="M285.54,59.62v.5c0-.17,0-.33-.01-.5h.01Z"/>
      <path class="cls-1" d="M285.54,60.12v57.95c0,.74-.59,1.43-1.59,1.85l-33.36,13.9c-2.43,1.01-5.72-.05-5.72-1.85V60.12c0-10.74-8.71-19.45-19.46-19.45-7.61,0-14.19,4.38-17.38,10.76-2.18-15.02-9.91-28.25-21.05-37.52,10.42-8.68,23.81-13.91,38.43-13.91,33.04,0,59.86,26.65,60.12,59.62.01.17.01.33.01.5Z"/>
      <path class="cls-1" d="M244.87,60.12v.5h-.02c0-.16.02-.33.02-.5Z"/>
    </g>
  </g>
</svg>