<?xml version="1.0" encoding="UTF-8"?>
<svg id="Layer_1" data-name="Layer 1" xmlns="http://www.w3.org/2000/svg" viewBox="0 0 329.03 165.26">
  <path d="m140.53,133.85c0,.74-.59,1.43-1.59,1.84l-31.9,13.9c-2.43,1.01-5.72-.05-5.72-1.84v-72.35c-.07-10.69-8.75-19.33-19.46-19.33s-19.38,8.64-19.45,19.33v58.45c0,.74-.6,1.43-1.6,1.84l-33.36,13.9c-2.42,1.01-5.71-.05-5.71-1.84v-71.47c0-33.47,27.38-61.39,60.85-61,13.45.16,25.85,4.74,35.79,12.35,1.52,1.17,3.62,1.17,5.14,0,9.93-7.61,22.31-12.18,35.74-12.35,33.49-.42,60.89,27.51,60.89,61.01v57.56c0,.74-.6,1.43-1.6,1.84l-33.36,13.9c-2.42,1.01-5.71-.05-5.71-1.84v-72.35c0-10.74-8.71-19.45-19.46-19.45s-19.46,8.71-19.46,19.45" style="fill: #1389ca;"/>
  <path d="m307.28,74.9v.5c0-.17,0-.33-.01-.5h.01Z" style="fill: #4363ae;"/>
  <path d="m307.28,75.4v57.95c0,.74-.59,1.43-1.59,1.85l-33.36,13.9c-2.43,1.01-5.72-.05-5.72-1.85v-71.85c0-10.74-8.71-19.45-19.46-19.45-7.61,0-14.19,4.38-17.38,10.76-2.18-15.02-9.91-28.25-21.05-37.52,10.42-8.68,23.81-13.91,38.43-13.91,33.04,0,59.86,26.65,60.12,59.62.01.17.01.33.01.5Z" style="fill: #1389ca;"/>
  <path d="m266.61,75.4v.5h-.02c0-.16.02-.33.02-.5Z" style="fill: #4363ae;"/>
</svg>